<svg width="975" height="732" viewBox="0 0 975 732" fill="none" xmlns="http://www.w3.org/2000/svg">
<g id="undraw_inspiration_lecl 1" clip-path="url(#clip0)">
<g id="floor">
<path id="Vector" d="M487.457 732C756.672 732 974.915 715.026 974.915 694.087C974.915 673.148 756.672 656.173 487.457 656.173C218.242 656.173 0 673.148 0 694.087C0 715.026 218.242 732 487.457 732Z" fill="#3F3D56"/>
</g>
<g id="head">
<path id="Vector_2" d="M499.644 87.4731C499.644 87.4731 510.476 113.2 486.103 125.386C461.73 137.573 551.097 160.592 560.576 130.803C560.576 130.803 536.203 121.324 547.035 92.8893L499.644 87.4731Z" fill="#FFB9B9"/>
<path id="Vector_3" d="M526.048 103.045C546.987 103.045 563.961 86.0703 563.961 65.1314C563.961 44.1924 546.987 27.218 526.048 27.218C505.109 27.218 488.134 44.1924 488.134 65.1314C488.134 86.0703 505.109 103.045 526.048 103.045Z" fill="#FFB9B9"/>
</g>
<g id="pant">
<path id="Vector_4" d="M428.556 344.065L420.432 440.203C420.432 440.203 410.954 457.805 416.37 472.7C416.37 472.7 408.245 493.011 410.954 499.781C413.662 506.551 415.016 513.321 412.308 516.029C409.599 518.738 408.245 594.564 412.308 601.334C416.37 608.105 419.078 624.353 419.078 624.353C419.078 624.353 442.097 629.769 447.513 614.875C452.929 599.98 450.221 598.626 455.637 594.564C461.053 590.502 461.053 533.632 461.053 533.632C461.053 533.632 454.283 526.862 458.345 524.154C462.407 521.446 465.115 524.154 461.053 517.383C456.991 510.613 450.221 510.613 456.991 507.905C460.764 506.443 464.39 504.63 467.823 502.489L507.091 399.581C507.091 399.581 521.985 514.675 524.694 520.091C527.402 525.508 531.464 518.737 527.402 525.508C523.339 532.278 521.985 528.216 523.339 532.278C524.694 536.34 515.215 594.564 520.631 606.751C523.793 613.794 526.506 621.03 528.756 628.415C528.756 628.415 550.42 637.894 553.129 631.123C555.837 624.353 554.483 612.167 558.545 610.813C562.607 609.459 566.669 606.751 566.669 595.918C566.669 585.086 574.793 532.278 574.793 532.278C574.793 532.278 565.315 528.216 568.023 521.446C570.731 514.675 570.731 516.029 569.377 510.613C568.023 505.197 565.315 503.843 568.023 499.781C570.731 495.719 570.731 483.532 570.731 483.532L586.98 376.562L574.432 340.003L428.556 344.065Z" fill="#2F2E41"/>
</g>
<g id="left foot">
<path id="Vector_5" d="M528.756 618.937L527.402 647.372L550.42 651.434V622.999L528.756 618.937Z" fill="#FFB9B9"/>
<path id="Vector_6" d="M530.11 640.602C530.11 640.602 526.048 636.54 524.694 640.602C523.34 644.664 523.34 682.577 523.34 682.577C523.34 682.577 534.172 690.702 534.172 694.764C534.172 698.826 542.296 712.366 561.253 709.658C561.443 709.631 561.63 709.603 561.816 709.573C564.56 709.128 567.163 708.051 569.42 706.427C571.676 704.802 573.524 702.676 574.817 700.214C576.11 697.753 576.812 695.024 576.869 692.245C576.926 689.465 576.336 686.71 575.145 684.198L555.837 643.31C555.837 643.31 542.296 629.769 530.11 640.602Z" fill="#2F2E41"/>
</g>
<g id="right foot">
<path id="Vector_7" d="M442.097 618.937L443.451 647.372L420.432 651.434V622.999L442.097 618.937Z" fill="#FFB9B9"/>
<path id="Vector_8" d="M440.743 640.602C440.743 640.602 444.805 636.54 446.159 640.602C447.513 644.664 447.513 682.577 447.513 682.577C447.513 682.577 436.68 690.702 436.68 694.764C436.68 698.826 428.556 712.366 409.599 709.658C409.41 709.631 409.222 709.603 409.037 709.573C406.292 709.128 403.689 708.051 401.433 706.427C399.176 704.802 397.329 702.676 396.036 700.214C394.743 697.753 394.04 695.024 393.983 692.245C393.926 689.465 394.516 686.71 395.707 684.198L415.016 643.31C415.016 643.31 428.556 629.769 440.743 640.602Z" fill="#2F2E41"/>
</g>
<g id="hair">
<path id="Vector_9" d="M497.152 24.0651L490.378 21.3532C490.378 21.3532 504.541 5.75999 524.247 7.11599L518.705 1.01421C518.705 1.01421 532.252 -4.40947 544.569 9.82777C551.043 17.312 558.534 26.1093 563.204 36.0194H570.458L567.43 42.686L578.027 49.3526L567.151 48.1551C568.181 53.9106 567.828 59.8286 566.122 65.4211L566.413 70.6904C566.413 70.6904 553.806 51.1837 553.806 48.4718V55.2515C553.806 55.2515 547.032 49.1498 547.032 45.082L543.337 49.8278L541.49 42.3701L518.705 49.8278L522.4 43.7261L508.236 45.76L513.778 38.3023C513.778 38.3023 497.767 47.1159 497.152 54.5736C496.536 62.0311 488.53 71.5227 488.53 71.5227L484.836 64.743C484.836 64.743 479.293 34.2346 497.152 24.0651Z" fill="#2F2E41"/>
</g>
<g id="right-hand">
<path id="Vector_10" d="M578.856 340.003L577.501 350.835L584.272 376.562L593.75 353.544L578.856 340.003Z" fill="#FFB9B9"/>
<path id="Vector_11" d="M584.272 149.082H599.358C600.466 149.082 601.542 149.459 602.408 150.151C603.274 150.843 603.878 151.809 604.122 152.89C606.45 163.199 612.448 192.419 611.353 215.431C609.999 243.866 612.707 264.176 611.353 268.239C609.999 272.301 611.353 273.655 611.353 277.717C611.353 281.779 615.415 279.071 611.353 284.487C607.291 289.903 607.291 288.549 607.291 292.611C607.291 296.674 593.75 358.96 593.75 358.96C593.75 358.96 584.441 343.66 574.201 346.571L576.147 291.257L578.856 268.239L574.793 227.617L584.272 149.082Z" fill="#3F3D56"/>
</g>
<g id="shirt">
<path id="Vector_12" d="M518.6 134.865C518.6 134.865 495.582 134.028 488.134 124.291C488.134 124.291 440.066 140.281 434.649 153.822C429.233 167.362 453.606 228.294 453.606 228.294C453.606 228.294 411.631 352.867 431.941 352.867C452.252 352.867 498.29 369.115 525.371 359.637C542.151 353.817 559.353 349.29 576.824 346.096C576.824 346.096 579.532 309.537 576.824 302.767C574.116 295.997 567.346 300.059 571.408 290.58C575.47 281.102 574.116 279.748 572.762 275.686C571.408 271.624 575.47 266.207 575.47 260.791C575.47 255.375 574.116 243.189 574.116 243.189C574.116 243.189 610.676 157.884 602.551 149.759C594.427 141.635 553.072 125.981 553.072 125.981C553.072 125.981 541.619 140.281 518.6 134.865Z" fill="#3F3D56"/>
</g>
<g id="ball6">
<path id="Vector_13" d="M823.261 547.849C839.713 547.849 853.05 534.512 853.05 518.06C853.05 501.608 839.713 488.271 823.261 488.271C806.809 488.271 793.472 501.608 793.472 518.06C793.472 534.512 806.809 547.849 823.261 547.849Z" fill="#6C63FF"/>
<path id="Vector_14" d="M802.95 532.955C806.69 532.955 809.721 526.286 809.721 518.06C809.721 509.834 806.69 503.166 802.95 503.166C799.211 503.166 796.18 509.834 796.18 518.06C796.18 526.286 799.211 532.955 802.95 532.955Z" fill="white"/>
</g>
<g id="ball3">
<path id="Vector_15" d="M727.124 356.929C743.576 356.929 756.913 343.592 756.913 327.14C756.913 310.688 743.576 297.351 727.124 297.351C710.672 297.351 697.335 310.688 697.335 327.14C697.335 343.592 710.672 356.929 727.124 356.929Z" fill="#3F3D56"/>
<path id="Vector_16" d="M719.18 316.174C725.842 311.348 729.465 304.982 727.271 301.953C725.078 298.925 717.899 300.382 711.237 305.208C704.575 310.034 700.953 316.401 703.146 319.429C705.34 322.457 712.519 321 719.18 316.174Z" fill="white"/>
</g>
<g id="ball1">
<path id="Vector_17" d="M802.95 181.864C813.203 181.864 821.515 173.553 821.515 163.3C821.515 153.047 813.203 144.735 802.95 144.735C792.698 144.735 784.386 153.047 784.386 163.3C784.386 173.553 792.698 181.864 802.95 181.864Z" fill="#3F3D56"/>
<path id="Vector_18" d="M798 156.466C802.152 153.459 804.409 149.491 803.042 147.604C801.675 145.717 797.202 146.625 793.05 149.632C788.898 152.64 786.641 156.607 788.008 158.494C789.375 160.382 793.849 159.473 798 156.466Z" fill="white"/>
</g>
<g id="ball7">
<path id="Vector_19" d="M663.484 659.843C673.736 659.843 682.048 651.532 682.048 641.279C682.048 631.026 673.736 622.714 663.484 622.714C653.231 622.714 644.919 631.026 644.919 641.279C644.919 651.532 653.231 659.843 663.484 659.843Z" fill="#3F3D56"/>
<path id="Vector_20" d="M658.533 634.445C662.685 631.438 664.942 627.47 663.575 625.583C662.208 623.696 657.735 624.604 653.583 627.611C649.431 630.619 647.174 634.586 648.541 636.473C649.908 638.36 654.382 637.452 658.533 634.445Z" fill="white"/>
</g>
<g id="ball4">
<path id="Vector_21" d="M820.553 412.445C837.005 412.445 850.342 399.108 850.342 382.656C850.342 366.204 837.005 352.867 820.553 352.867C804.101 352.867 790.764 366.204 790.764 382.656C790.764 399.108 804.101 412.445 820.553 412.445Z" fill="#3F3D56"/>
<path id="Vector_22" d="M800.242 397.55C803.981 397.55 807.013 390.882 807.013 382.656C807.013 374.43 803.981 367.761 800.242 367.761C796.503 367.761 793.472 374.43 793.472 382.656C793.472 390.882 796.503 397.55 800.242 397.55Z" fill="white"/>
</g>
<g id="ball2">
<path id="Vector_23" d="M724.416 221.524C740.868 221.524 754.205 208.187 754.205 191.735C754.205 175.283 740.868 161.946 724.416 161.946C707.964 161.946 694.627 175.283 694.627 191.735C694.627 208.187 707.964 221.524 724.416 221.524Z" fill="#6C63FF"/>
<path id="Vector_24" d="M716.472 180.769C723.134 175.943 726.757 169.577 724.563 166.549C722.37 163.52 715.191 164.978 708.529 169.803C701.867 174.629 698.245 180.996 700.438 184.024C702.632 187.052 709.811 185.595 716.472 180.769Z" fill="white"/>
</g>
<g id="ball0">
<path id="Vector_25" d="M800.242 46.4595C810.495 46.4595 818.807 38.1479 818.807 27.895C818.807 17.6422 810.495 9.33063 800.242 9.33063C789.99 9.33063 781.678 17.6422 781.678 27.895C781.678 38.1479 789.99 46.4595 800.242 46.4595Z" fill="#6C63FF"/>
<path id="Vector_26" d="M795.292 21.0613C799.444 18.054 801.701 14.0863 800.334 12.1991C798.967 10.312 794.494 11.2201 790.342 14.2275C786.19 17.2348 783.933 21.2025 785.3 23.0897C786.667 24.9768 791.141 24.0686 795.292 21.0613Z" fill="white"/>
</g>
<g id="ball5">
<path id="Vector_27" d="M665.564 487.677C675.817 487.677 684.129 479.366 684.129 469.113C684.129 458.86 675.817 450.548 665.564 450.548C655.312 450.548 647 458.86 647 469.113C647 479.366 655.312 487.677 665.564 487.677Z" fill="#3F3D56"/>
<path id="Vector_28" d="M660.614 462.279C664.766 459.272 667.023 455.304 665.656 453.417C664.289 451.53 659.816 452.438 655.664 455.445C651.512 458.453 649.255 462.42 650.622 464.307C651.989 466.195 656.462 465.286 660.614 462.279Z" fill="white"/>
</g>
<g id="cardboard">
<path id="Vector_29" d="M442.774 383.922H67.7024V611.577H442.774V383.922Z" fill="#F2F2F2"/>
</g>
<g id="left hand">
<g id="Group 1">
<path id="Vector_30" d="M412.308 353.544C412.308 353.544 400.121 417.184 420.432 411.768C440.743 406.351 431.264 353.544 431.264 353.544H412.308Z" fill="#FFB9B9"/>
<path id="Vector_31" d="M443.451 149.082L438.642 151.487C436.77 152.423 435.14 153.779 433.88 155.45C432.619 157.121 431.763 159.061 431.377 161.118L412.308 262.822C412.308 262.822 406.891 275.009 406.891 276.363C406.891 277.717 409.6 277.717 406.891 281.779C404.183 285.841 400.121 284.487 402.829 287.195C404.375 288.6 405.341 290.532 405.537 292.611L408.245 358.96C408.245 358.96 431.264 352.19 438.035 358.96C438.035 358.96 431.264 338.649 435.326 331.879C439.389 325.108 439.389 315.63 439.389 315.63C439.389 315.63 436.681 315.63 443.451 308.86C450.221 302.09 451.575 299.382 450.221 298.028C448.867 296.674 447.513 284.487 447.513 283.133C447.513 281.779 461.053 191.058 461.053 191.058L443.451 149.082Z" fill="#3F3D56"/>
</g>
</g>
<g id="ballcard">
<path id="Vector_32" d="M259.903 574.257C305.249 574.257 342.008 537.497 342.008 492.152C342.008 446.806 305.249 410.046 259.903 410.046C214.558 410.046 177.798 446.806 177.798 492.152C177.798 537.497 214.558 574.257 259.903 574.257Z" fill="#6C63FF"/>
<path id="Vector_33" d="M331.396 543.701C315.632 543.702 280.82 527.511 249.86 508.548C211.442 485.017 174.13 454.26 180.653 443.609C182.496 440.6 187.066 439.813 194.626 441.2L194.084 444.151C188.23 443.074 184.268 443.45 183.211 445.176C181.669 447.693 185.069 455.002 199.235 467.964C212.144 479.777 230.679 493.281 251.427 505.989C272.175 518.697 292.627 529.073 309.015 535.206C326.999 541.937 335.054 541.643 336.595 539.127C337.654 537.398 336.183 533.694 332.559 528.963L334.941 527.139C339.62 533.249 340.998 537.683 339.154 540.693C337.887 542.762 335.194 543.701 331.396 543.701Z" fill="#3F3D56"/>
<path id="Vector_34" d="M249.769 466.743C259.044 466.743 266.563 459.224 266.563 449.949C266.563 440.674 259.044 433.155 249.769 433.155C240.493 433.155 232.974 440.674 232.974 449.949C232.974 459.224 240.493 466.743 249.769 466.743Z" fill="white"/>
<path id="Vector_35" d="M254.633 553.21C260.816 553.21 265.829 548.198 265.829 542.014C265.829 535.831 260.816 530.818 254.633 530.818C248.449 530.818 243.437 535.831 243.437 542.014C243.437 548.198 248.449 553.21 254.633 553.21Z" fill="white"/>
<path id="Vector_36" d="M293.187 514.827C299.371 514.827 304.384 509.814 304.384 503.631C304.384 497.447 299.371 492.434 293.187 492.434C287.004 492.434 281.991 497.447 281.991 503.631C281.991 509.814 287.004 514.827 293.187 514.827Z" fill="white"/>
</g>
<g id="heart">
<path id="Vector_37" d="M79.0904 371.107C76.4556 368.86 73.4038 367.153 70.1095 366.085C66.8151 365.017 63.3427 364.609 59.8904 364.883C56.4381 365.157 53.0736 366.108 49.9889 367.682C46.9043 369.256 44.1599 371.423 41.9125 374.058C39.6652 376.693 37.9588 379.744 36.8908 383.039C35.8228 386.333 35.4141 389.805 35.6881 393.258C35.9621 396.71 36.9135 400.075 38.4877 403.159C40.062 406.244 42.2285 408.988 44.8633 411.236L84.992 445.463L119.219 405.334C123.758 400.013 125.997 393.106 125.444 386.134C124.89 379.162 121.59 372.695 116.268 368.156C110.947 363.617 104.04 361.378 97.0683 361.932C90.096 362.485 83.6292 365.786 79.0904 371.107Z" fill="#FF6584"/>
</g>
</g>
<defs>
<clipPath id="clip0">
<rect width="974.915" height="732" fill="white"/>
</clipPath>
</defs>
</svg>
